<mxfile host="app.diagrams.net" modified="2021-12-26T06:31:16.807Z" agent="5.0 (Windows)" etag="d1bbnDU4ol7pqxjtXyaV" version="16.1.0" type="github">
  <diagram id="prtHgNgQTEPvFCAcTncT" name="Page-1">
    <mxGraphModel dx="770" dy="737" grid="1" gridSize="10" guides="1" tooltips="1" connect="1" arrows="1" fold="1" page="1" pageScale="1" pageWidth="827" pageHeight="1169" math="0" shadow="0">
      <root>
        <mxCell id="0" />
        <mxCell id="1" parent="0" />
        <mxCell id="V9XAqMBxs20Or0usja7j-10" style="edgeStyle=orthogonalEdgeStyle;rounded=0;orthogonalLoop=1;jettySize=auto;html=1;" edge="1" parent="1" source="V9XAqMBxs20Or0usja7j-2" target="V9XAqMBxs20Or0usja7j-4">
          <mxGeometry relative="1" as="geometry" />
        </mxCell>
        <mxCell id="V9XAqMBxs20Or0usja7j-2" value="RGB图像" style="rounded=1;whiteSpace=wrap;html=1;" vertex="1" parent="1">
          <mxGeometry x="30" y="180" width="120" height="60" as="geometry" />
        </mxCell>
        <mxCell id="V9XAqMBxs20Or0usja7j-15" style="edgeStyle=orthogonalEdgeStyle;rounded=0;orthogonalLoop=1;jettySize=auto;html=1;entryX=0;entryY=0.5;entryDx=0;entryDy=0;" edge="1" parent="1" source="V9XAqMBxs20Or0usja7j-3" target="V9XAqMBxs20Or0usja7j-5">
          <mxGeometry relative="1" as="geometry" />
        </mxCell>
        <mxCell id="V9XAqMBxs20Or0usja7j-3" value="点云数据" style="rounded=1;whiteSpace=wrap;html=1;" vertex="1" parent="1">
          <mxGeometry x="210" y="270" width="120" height="50" as="geometry" />
        </mxCell>
        <mxCell id="V9XAqMBxs20Or0usja7j-11" style="edgeStyle=orthogonalEdgeStyle;rounded=0;orthogonalLoop=1;jettySize=auto;html=1;" edge="1" parent="1" source="V9XAqMBxs20Or0usja7j-4" target="V9XAqMBxs20Or0usja7j-13">
          <mxGeometry relative="1" as="geometry">
            <mxPoint x="450" y="240" as="targetPoint" />
          </mxGeometry>
        </mxCell>
        <mxCell id="V9XAqMBxs20Or0usja7j-4" value="2D目标检测，投影为3D平截头体" style="rounded=1;whiteSpace=wrap;html=1;" vertex="1" parent="1">
          <mxGeometry x="240" y="180" width="120" height="60" as="geometry" />
        </mxCell>
        <mxCell id="V9XAqMBxs20Or0usja7j-18" value="" style="edgeStyle=orthogonalEdgeStyle;rounded=0;orthogonalLoop=1;jettySize=auto;html=1;" edge="1" parent="1" source="V9XAqMBxs20Or0usja7j-5" target="V9XAqMBxs20Or0usja7j-16">
          <mxGeometry relative="1" as="geometry" />
        </mxCell>
        <mxCell id="V9XAqMBxs20Or0usja7j-5" value="转换为bev数据，进行特征金字塔提取" style="whiteSpace=wrap;html=1;rounded=1;" vertex="1" parent="1">
          <mxGeometry x="470" y="265" width="120" height="60" as="geometry" />
        </mxCell>
        <mxCell id="V9XAqMBxs20Or0usja7j-17" value="" style="edgeStyle=orthogonalEdgeStyle;rounded=0;orthogonalLoop=1;jettySize=auto;html=1;" edge="1" parent="1" source="V9XAqMBxs20Or0usja7j-13" target="V9XAqMBxs20Or0usja7j-16">
          <mxGeometry relative="1" as="geometry" />
        </mxCell>
        <mxCell id="V9XAqMBxs20Or0usja7j-13" value="3D实例分割，PointNet提取特征" style="rounded=1;whiteSpace=wrap;html=1;" vertex="1" parent="1">
          <mxGeometry x="470" y="180" width="120" height="60" as="geometry" />
        </mxCell>
        <mxCell id="V9XAqMBxs20Or0usja7j-14" value="" style="endArrow=classic;html=1;rounded=0;exitX=1;exitY=0.5;exitDx=0;exitDy=0;" edge="1" parent="1" source="V9XAqMBxs20Or0usja7j-3">
          <mxGeometry width="50" height="50" relative="1" as="geometry">
            <mxPoint x="364" y="280" as="sourcePoint" />
            <mxPoint x="414" y="210" as="targetPoint" />
          </mxGeometry>
        </mxCell>
        <mxCell id="V9XAqMBxs20Or0usja7j-20" style="edgeStyle=orthogonalEdgeStyle;rounded=0;orthogonalLoop=1;jettySize=auto;html=1;entryX=1;entryY=0.5;entryDx=0;entryDy=0;" edge="1" parent="1" source="V9XAqMBxs20Or0usja7j-16" target="V9XAqMBxs20Or0usja7j-19">
          <mxGeometry relative="1" as="geometry">
            <mxPoint x="720" y="480" as="targetPoint" />
            <Array as="points">
              <mxPoint x="720" y="410" />
            </Array>
          </mxGeometry>
        </mxCell>
        <mxCell id="V9XAqMBxs20Or0usja7j-16" value="特征融合" style="rounded=1;whiteSpace=wrap;html=1;" vertex="1" parent="1">
          <mxGeometry x="660" y="220" width="120" height="60" as="geometry" />
        </mxCell>
        <mxCell id="V9XAqMBxs20Or0usja7j-21" style="edgeStyle=orthogonalEdgeStyle;rounded=0;orthogonalLoop=1;jettySize=auto;html=1;exitX=0;exitY=0.5;exitDx=0;exitDy=0;" edge="1" parent="1" source="V9XAqMBxs20Or0usja7j-19">
          <mxGeometry relative="1" as="geometry">
            <mxPoint x="330" y="410" as="targetPoint" />
          </mxGeometry>
        </mxCell>
        <mxCell id="V9XAqMBxs20Or0usja7j-19" value="边界盒网络估计目标3D边界框" style="rounded=1;whiteSpace=wrap;html=1;" vertex="1" parent="1">
          <mxGeometry x="400" y="380" width="120" height="60" as="geometry" />
        </mxCell>
        <mxCell id="V9XAqMBxs20Or0usja7j-22" value="检验试验结果，调整参数" style="rounded=1;whiteSpace=wrap;html=1;" vertex="1" parent="1">
          <mxGeometry x="210" y="380" width="120" height="60" as="geometry" />
        </mxCell>
      </root>
    </mxGraphModel>
  </diagram>
</mxfile>
